<?xml version="1.0" encoding="UTF-8"?><svg id="Layer_2" xmlns="http://www.w3.org/2000/svg" viewBox="0 0 401.87 399.72"><defs><style>.cls-1{fill:#fefefe;}.cls-1,.cls-2,.cls-3,.cls-4{stroke-width:0px;}.cls-2{fill:#5da043;}.cls-3{fill:#1f41c0;}.cls-4{fill:#fe6666;}</style></defs><g id="Layer_1-2"><path class="cls-4" d="M381.37,94.58c7.94,14.78,12.95,30.64,15.57,47.08,8.76,54.9,6.53,109.16-12.11,161.96-10.7,30.32-27.96,56.29-55.06,74.63-26.32,17.8-55.61,23.76-86.97,20.7-7.83-1.2-15.75-1.85-23.23-4.87-20.78-8.38-35.96-22.76-46.36-42.48-9.53-18.08-14.27-37.44-16.32-57.64-.58-5.64-.82-11.25-.83-16.89-.83-29.59,3.63-58.46,12.43-86.63,14.23-45.52,39.44-83.53,78.29-111.77,17.18-12.49,36.12-21.54,57.4-24.38,24.82-3.31,47.05,2.21,64.77,21.05,5.3,5.63,8.91,12.41,12.4,19.23Z"/><path class="cls-3" d="M381.37,94.58c-6.41-10.16-13.28-19.91-23.28-27-21.18-15.02-44.29-15.81-68.18-8.76-31.01,9.15-55.57,28.1-76.41,52.17-29.95,34.59-45.95,75.44-53.08,120.18-2.42,15.16-3.21,30.43-3.35,45.75-1.71,1.26-3.2.12-4.64-.56-24.05-11.42-46.23-25.64-66.32-43.21-18.61-16.28-34.28-34.91-46.8-56.15-11.01-18.7-18.76-38.69-20.86-60.46-1.68-17.44,1.37-34.16,9.29-49.93,2.28-4.53,6.32-7.7,8.75-12.08,20.49-20.37,45.62-32.75,72.86-40.77,58.86-17.32,118.19-18.88,177.23-1.39,41.28,12.22,72.62,37.52,92.46,76.24.97,1.89,2.39,3.65,2.33,5.96Z"/><path class="cls-2" d="M36.49,54.54c-.21.77-.22,1.68-.66,2.27-16.83,22.38-19.43,47.39-13.67,73.92,6.37,29.35,21.31,54.26,40.5,76.8,25.53,30,56.9,52.28,92.55,68.73.6.27,1.24.45,1.86.67.74,20.32,3.34,40.34,10.64,59.46,11.52,30.15,31.29,51.69,63.52,59.94,3.83.98,7.71,1.76,11.58,2.64-26.44-1.1-51.76-7.48-75.66-18.36C84.93,343.18,30.45,281.57,7.12,193.71.68,169.45-1.96,144.53,1.58,119.48c3.64-25.78,15.54-47.45,34.91-64.94Z"/><path class="cls-1" d="M266.57,322.05c-11.32,0-22.65-.2-33.97.1-4.3.12-5.44-1.29-5.13-5.35.35-4.64.28-9.33,0-13.98-.2-3.41,1.12-4.18,4.3-4.16,19.48.12,38.96.07,58.44.06,7.07,0,7.39-.32,7.39-7.27,0-18.65.14-37.3-.1-55.95-.06-4.32,1.36-5.43,5.39-5.19,5.31.31,10.65.13,15.98.08,2.67-.03,3.78.94,3.76,3.83-.11,22.48.07,44.96-.16,67.44-.12,11.47-8.9,20.06-20.45,20.29-11.82.24-23.64.05-35.47.05v.04Z"/><path class="cls-1" d="M265.01,185.77c8.51.06,15.23,6.84,15.05,15.18-.18,8.33-7.17,15.09-15.47,14.96-8.33-.12-15.11-7.07-15.04-15.39.07-8.38,6.81-14.81,15.46-14.75Z"/><path class="cls-1" d="M202.32,185.77c8.69.05,15.14,6.57,15.05,15.2-.09,8.29-7.17,15.1-15.54,14.93-8.21-.16-14.65-6.81-14.66-15.16-.02-8.73,6.35-15.03,15.15-14.98Z"/><path class="cls-1" d="M136.42,78.05c11.66,0,23.32.08,34.98-.06,2.92-.04,4.17.55,3.98,3.82-.3,5.32-.33,10.67,0,15.98.21,3.36-1.19,3.77-3.99,3.76-19.49-.08-38.98-.02-58.47-.04-7.41,0-7.68.2-7.69,7.44,0,18.66-.1,37.32.08,55.98.03,3.58-.61,5.11-4.58,4.85-5.47-.35-10.99-.23-16.49-.03-2.91.1-4.09-.58-4.07-3.81.14-22.16-.05-44.32.15-66.48.11-12.58,9-21.22,21.6-21.38,11.49-.14,22.99-.03,34.48-.03Z"/><path class="cls-1" d="M137.78,185.71c8.52-.02,15.23,6.56,15.28,14.98.05,8.27-6.85,15.18-15.19,15.2-8.36.02-15.22-6.78-15.25-15.12-.03-8.43,6.62-15.04,15.16-15.06Z"/></g></svg>