<svg width="400" height="400" viewBox="0 0 400 400" fill="none" xmlns="http://www.w3.org/2000/svg">
<g clip-path="url(#clip0_272_712)">
<path d="M370.464 0H29.552C13.232 0 0 12.832 0 28.656V371.328C0 387.168 13.232 400 29.552 400H370.464C386.784 400 400 387.152 400 371.328V28.656C400 12.832 386.784 0 370.464 0Z" fill="#14A800"/>
<path d="M293.536 232.592C277.792 232.592 263.056 225.92 249.648 215.056L252.912 199.728L253.056 199.168C255.968 182.848 265.184 155.44 293.536 155.44C314.8 155.44 332.096 172.768 332.096 194.048C332.032 215.264 314.736 232.592 293.536 232.592ZM293.536 116.32C257.312 116.32 229.232 139.888 217.824 178.64C200.384 152.448 187.2 121.008 179.472 94.5281H140.496V196.096C140.496 216.112 124.192 232.432 104.192 232.432C84.1916 232.432 67.9036 216.112 67.9036 196.096V94.5281H28.9116V196.096C28.7676 237.696 62.5916 271.84 104.128 271.84C145.664 271.84 179.488 237.696 179.488 196.096V179.056C187.072 194.88 196.352 210.848 207.632 225.056L183.744 337.488H223.664L240.96 255.936C256.128 265.664 273.568 271.76 293.568 271.76C336.32 271.76 371.12 236.688 371.12 193.888C371.088 151.168 336.288 116.32 293.536 116.32Z" fill="white"/>
</g>
<defs>
<clipPath id="clip0_272_712">
<rect width="400" height="400" fill="white"/>
</clipPath>
</defs>
</svg>
