<svg width="797" height="808" viewBox="0 0 797 808" fill="none" xmlns="http://www.w3.org/2000/svg">
<path d="M275.548 276.743L275.212 277.068L275.514 277.425L300.674 307.227C308.801 316.854 301.822 331.571 289.226 331.371L237.816 330.553L153.35 329.213L156.865 306.366L174.012 194.899C175.928 182.448 191.607 178.036 199.734 187.663L220.927 212.765L221.264 213.165L221.648 212.81C224.496 210.185 227.399 207.606 230.376 205.092C283.489 160.252 350.882 138.781 420.146 144.63C489.408 150.48 552.246 182.951 597.086 236.063C639.265 286.024 660.756 348.62 658.291 413.521L574.657 413.008C576.897 369.74 563.38 325.564 533.29 289.923C470.424 215.459 358.7 206.023 284.235 268.889L284.234 268.89C281.254 271.412 278.357 274.031 275.548 276.743ZM624.769 494.166L616.897 545.34L604.107 628.479C602.191 640.93 586.512 645.342 578.385 635.717L557.175 610.594L556.867 610.229L556.488 610.52C504.979 650.067 441.492 668.74 376.347 663.239C307.083 657.389 244.246 624.918 199.406 571.805C160.92 526.218 139.669 470.111 138.111 411.334L221.767 411.846C223.413 449.527 237.045 486.962 263.202 517.945C323.375 589.22 428.309 600.907 502.489 546.646L502.921 546.33L502.575 545.92L477.445 516.153C469.318 506.526 476.297 491.809 488.893 492.009L550.609 492.988L624.769 494.166Z" fill="#001F52" stroke="black"/>
<mask id="path-2-outside-1_51_147" maskUnits="userSpaceOnUse" x="303" y="331" width="195" height="143" fill="black">
<rect fill="white" x="303" y="331" width="195" height="143"/>
<path d="M311.461 473C306.904 473 304.625 470.559 304.625 465.676V340.285C304.625 335.402 306.904 332.961 311.461 332.961H327.281C331.188 332.961 333.141 335.402 333.141 340.285V448.781H390.074C394.957 448.781 397.398 450.897 397.398 455.129V466.652C397.398 470.884 394.957 473 390.074 473H311.461ZM393.297 473C388.74 473 386.461 470.559 386.461 465.676V340.285C386.461 335.402 388.74 332.961 393.297 332.961H408.141C412.698 332.961 414.977 335.402 414.977 340.285V388.039H467.516V340.285C467.516 335.402 469.794 332.961 474.352 332.961H489.195C493.753 332.961 496.031 335.402 496.031 340.285V465.676C496.031 470.559 493.753 473 489.195 473H474.352C469.794 473 467.516 470.559 467.516 465.676V412.258H414.977V465.676C414.977 470.559 412.698 473 408.141 473H393.297Z"/>
</mask>
<path d="M311.461 473C306.904 473 304.625 470.559 304.625 465.676V340.285C304.625 335.402 306.904 332.961 311.461 332.961H327.281C331.188 332.961 333.141 335.402 333.141 340.285V448.781H390.074C394.957 448.781 397.398 450.897 397.398 455.129V466.652C397.398 470.884 394.957 473 390.074 473H311.461ZM393.297 473C388.74 473 386.461 470.559 386.461 465.676V340.285C386.461 335.402 388.74 332.961 393.297 332.961H408.141C412.698 332.961 414.977 335.402 414.977 340.285V388.039H467.516V340.285C467.516 335.402 469.794 332.961 474.352 332.961H489.195C493.753 332.961 496.031 335.402 496.031 340.285V465.676C496.031 470.559 493.753 473 489.195 473H474.352C469.794 473 467.516 470.559 467.516 465.676V412.258H414.977V465.676C414.977 470.559 412.698 473 408.141 473H393.297Z" fill="#001F52"/>
<path d="M333.141 448.781H332.141V449.781H333.141V448.781ZM311.461 472C309.355 472 307.954 471.439 307.065 470.487C306.164 469.521 305.625 467.98 305.625 465.676H303.625C303.625 468.255 304.225 470.375 305.603 471.851C306.993 473.34 309.01 474 311.461 474V472ZM305.625 465.676V340.285H303.625V465.676H305.625ZM305.625 340.285C305.625 337.981 306.164 336.44 307.065 335.474C307.954 334.522 309.355 333.961 311.461 333.961V331.961C309.01 331.961 306.993 332.621 305.603 334.11C304.225 335.586 303.625 337.706 303.625 340.285H305.625ZM311.461 333.961H327.281V331.961H311.461V333.961ZM327.281 333.961C329.014 333.961 330.155 334.491 330.895 335.417C331.669 336.385 332.141 337.951 332.141 340.285H334.141C334.141 337.737 333.635 335.641 332.457 334.167C331.244 332.651 329.455 331.961 327.281 331.961V333.961ZM332.141 340.285V448.781H334.141V340.285H332.141ZM333.141 449.781H390.074V447.781H333.141V449.781ZM390.074 449.781C392.394 449.781 393.947 450.287 394.912 451.124C395.851 451.937 396.398 453.207 396.398 455.129H398.398C398.398 452.819 397.725 450.915 396.222 449.612C394.747 448.334 392.637 447.781 390.074 447.781V449.781ZM396.398 455.129V466.652H398.398V455.129H396.398ZM396.398 466.652C396.398 468.574 395.851 469.844 394.912 470.657C393.947 471.494 392.394 472 390.074 472V474C392.637 474 394.747 473.448 396.222 472.169C397.725 470.866 398.398 468.963 398.398 466.652H396.398ZM390.074 472H311.461V474H390.074V472ZM414.977 388.039H413.977V389.039H414.977V388.039ZM467.516 388.039V389.039H468.516V388.039H467.516ZM467.516 412.258H468.516V411.258H467.516V412.258ZM414.977 412.258V411.258H413.977V412.258H414.977ZM393.297 472C391.191 472 389.79 471.439 388.901 470.487C388 469.521 387.461 467.98 387.461 465.676H385.461C385.461 468.255 386.061 470.375 387.439 471.851C388.829 473.34 390.846 474 393.297 474V472ZM387.461 465.676V340.285H385.461V465.676H387.461ZM387.461 340.285C387.461 337.981 388 336.44 388.901 335.474C389.79 334.522 391.191 333.961 393.297 333.961V331.961C390.846 331.961 388.829 332.621 387.439 334.11C386.061 335.586 385.461 337.706 385.461 340.285H387.461ZM393.297 333.961H408.141V331.961H393.297V333.961ZM408.141 333.961C410.247 333.961 411.648 334.522 412.537 335.474C413.438 336.44 413.977 337.981 413.977 340.285H415.977C415.977 337.706 415.376 335.586 413.999 334.11C412.609 332.621 410.592 331.961 408.141 331.961V333.961ZM413.977 340.285V388.039H415.977V340.285H413.977ZM414.977 389.039H467.516V387.039H414.977V389.039ZM468.516 388.039V340.285H466.516V388.039H468.516ZM468.516 340.285C468.516 337.981 469.055 336.44 469.956 335.474C470.845 334.522 472.245 333.961 474.352 333.961V331.961C471.9 331.961 469.883 332.621 468.494 334.11C467.116 335.586 466.516 337.706 466.516 340.285H468.516ZM474.352 333.961H489.195V331.961H474.352V333.961ZM489.195 333.961C491.301 333.961 492.702 334.522 493.591 335.474C494.492 336.44 495.031 337.981 495.031 340.285H497.031C497.031 337.706 496.431 335.586 495.053 334.11C493.664 332.621 491.646 331.961 489.195 331.961V333.961ZM495.031 340.285V465.676H497.031V340.285H495.031ZM495.031 465.676C495.031 467.98 494.492 469.521 493.591 470.487C492.702 471.439 491.301 472 489.195 472V474C491.646 474 493.664 473.34 495.053 471.851C496.431 470.375 497.031 468.255 497.031 465.676H495.031ZM489.195 472H474.352V474H489.195V472ZM474.352 472C472.245 472 470.845 471.439 469.956 470.487C469.055 469.521 468.516 467.98 468.516 465.676H466.516C466.516 468.255 467.116 470.375 468.494 471.851C469.883 473.34 471.9 474 474.352 474V472ZM468.516 465.676V412.258H466.516V465.676H468.516ZM467.516 411.258H414.977V413.258H467.516V411.258ZM413.977 412.258V465.676H415.977V412.258H413.977ZM413.977 465.676C413.977 467.98 413.438 469.521 412.537 470.487C411.648 471.439 410.247 472 408.141 472V474C410.592 474 412.609 473.34 413.999 471.851C415.376 470.375 415.977 468.255 415.977 465.676H413.977ZM408.141 472H393.297V474H408.141V472Z" fill="black" mask="url(#path-2-outside-1_51_147)"/>
</svg>
