<svg width="57" height="57" viewBox="0 0 57 57" fill="none" xmlns="http://www.w3.org/2000/svg">
<circle cx="28.2008" cy="28.2008" r="28.2008" fill="#FAFAFA"/>
<g clip-path="url(#clip0_47_88)">
<rect width="40.2868" height="29.9274" transform="translate(8 13)" fill="#FAFAFA"/>
<path d="M12.1974 21.9533L12.5345 21.6191L17.0458 17.1539C17.1768 17.0228 17.3211 16.9314 17.4778 16.8687C17.6345 16.8059 17.8031 16.7733 17.9727 16.7733C18.1423 16.7733 18.3109 16.8059 18.4671 16.8687C18.6228 16.932 18.7671 17.0228 18.8996 17.1539L24.2909 22.49L26.9871 19.8215L21.5953 14.4858C21.0994 13.9945 20.5184 13.62 19.9003 13.3715C19.2827 13.124 18.6269 13 17.9727 13C17.3185 13 16.6643 13.123 16.0457 13.3715C15.4276 13.6189 14.8451 13.994 14.3497 14.4858L9.50119 19.2837C9.00372 19.775 8.62533 20.3521 8.37478 20.9639C8.12476 21.5757 8 22.2242 8 22.8717C8 23.5192 8.12527 24.1667 8.37478 24.779C8.62636 25.3908 9.00372 25.9658 9.50119 26.4572L20.6514 37.4933C21.1473 37.9841 21.7288 38.3586 22.3469 38.6066C22.9645 38.8551 23.6202 38.9776 24.2739 38.9776C24.9276 38.9776 25.5823 38.8551 26.2015 38.6066C26.8196 38.3597 27.4016 37.9841 27.8975 37.4933L29.2992 36.1059L31.9954 33.4373L32.7455 32.6944C33.2424 32.2036 33.6213 31.627 33.8714 31.0157C34.1219 30.4029 34.2466 29.7544 34.2466 29.1079C34.2466 28.4614 34.1219 27.8119 33.8708 27.2001C33.6208 26.5883 33.2419 26.0133 32.7455 25.5219L29.6838 22.4906L26.9876 25.1591L30.0493 28.1905C30.1807 28.3206 30.2741 28.4635 30.3375 28.6186C30.4009 28.7727 30.4328 28.9395 30.4328 29.1074C30.4328 29.2753 30.4009 29.4421 30.3375 29.5977C30.2741 29.7529 30.1807 29.8952 30.0493 30.0258L29.2987 30.7682L26.6025 33.4368L25.2024 34.8242C25.0699 34.9533 24.9255 35.0456 24.7688 35.1099C24.6121 35.1717 24.4435 35.2043 24.2734 35.2043C24.1033 35.2043 23.9357 35.1717 23.779 35.1099C23.6223 35.0472 23.478 34.9533 23.347 34.8242L12.1974 23.7881C12.0659 23.657 11.9721 23.5146 11.9087 23.36C11.8453 23.2049 11.8133 23.0375 11.8133 22.8712C11.8133 22.7049 11.8453 22.5355 11.9087 22.3809C11.9726 22.2257 12.0659 22.0829 12.1974 21.9528V21.9533Z" fill="#001F52"/>
<path d="M44.089 33.9756L39.2421 38.773C39.1096 38.9031 38.9653 38.9954 38.8085 39.0582C38.6528 39.121 38.4832 39.1536 38.3136 39.1526C38.1451 39.1536 37.976 39.121 37.8203 39.0582C37.6636 38.9954 37.5192 38.9031 37.3867 38.773L31.9959 33.4368L29.2998 36.1054L34.6911 41.4421C35.187 41.9329 35.7695 42.3079 36.3861 42.5554C37.0042 42.8039 37.6594 42.9269 38.3142 42.9269C38.9689 42.9269 39.6231 42.8039 40.2412 42.5554C40.8603 42.3079 41.4413 41.9329 41.9388 41.4421L46.7867 36.6437C47.2832 36.1524 47.6621 35.5753 47.9116 34.9635C48.1632 34.3517 48.2874 33.7032 48.2874 33.0557C48.2874 32.4082 48.1637 31.7612 47.9116 31.1489C47.6616 30.5361 47.2832 29.961 46.7867 29.4697L35.6365 18.4336C35.1406 17.9428 34.5596 17.5682 33.942 17.3203C33.3239 17.0718 32.6687 16.9493 32.0145 16.9493C31.3603 16.9493 30.7051 17.0718 30.0875 17.3197C29.4694 17.5672 28.8868 17.9428 28.3899 18.4341L26.9882 19.8215L24.292 22.4901L23.5414 23.233H23.5425C23.045 23.7238 22.6666 24.3004 22.416 24.9127C22.165 25.5245 22.0413 26.173 22.0413 26.8205C22.0413 27.468 22.165 28.1155 22.416 28.7273C22.6661 29.3401 23.0445 29.9141 23.5409 30.4055L26.6036 33.4368L29.2998 30.7683L26.2371 27.7379C26.1056 27.6068 26.0128 27.4639 25.9494 27.3088C25.886 27.1547 25.8535 26.9879 25.8535 26.821C25.8535 26.6542 25.886 26.4853 25.9494 26.3312C26.0128 26.1761 26.1056 26.0332 26.2371 25.9031L26.5742 25.5684L26.9887 25.1591L29.6849 22.4906L31.085 21.1042C31.218 20.9731 31.3619 20.8807 31.5191 20.8175C31.6748 20.7557 31.8444 20.7231 32.014 20.7231C32.1836 20.7231 32.3511 20.7557 32.5068 20.8175C32.6635 20.8802 32.8084 20.9726 32.9393 21.1042L44.0906 32.1393C44.222 32.2704 44.3148 32.4128 44.3777 32.5684C44.4411 32.723 44.4741 32.8898 44.4741 33.0562C44.4741 33.2225 44.4411 33.3919 44.3777 33.5476C44.3143 33.7016 44.2215 33.8445 44.089 33.9756Z" fill="#859DC5"/>
</g>
<defs>
<clipPath id="clip0_47_88">
<rect width="40.2868" height="29.9274" fill="white" transform="translate(8 13)"/>
</clipPath>
</defs>
</svg>
