<svg version="1.2" xmlns="http://www.w3.org/2000/svg" viewBox="0 0 1457 1584" width="1457" height="1584">
	<title>ringcentral-svg</title>
	<style>
		.s0 { fill: #0684bc } 
		.s1 { fill: #ff7a00 } 
	</style>
	<path id="Layer" fill-rule="evenodd" class="s0" d="m1052.3 704.8h212.1v877.9h-212.1zm-159.2 556.1v322.7h-219.4v-322.7q0-186.6-186.6-186.6h-267.1v508.4h-219.4v-1280.4h471.8c278 0 428.1 146.5 428.1 347.7 0 195.7-87.9 282.9-217.6 318.7v8.6c133.3 29.4 210.2 102.6 210.2 283.6zm-222.3-572.2c0-139-91.4-188.4-210.2-188.4h-240.6v376.4h240.6c117.9 0 210.2-49.1 210.2-188z"/>
	<path id="Layer" fill-rule="evenodd" class="s1" d="m1104.3 553.5c-25.9-10.5-47.9-28.6-63.4-51.8-15.5-23.3-23.6-50.6-23.4-78.5 0-27.9 8.2-55.2 23.7-78.4 15.5-23.2 37.5-41.3 63.2-52 25.8-10.7 54.1-13.5 81.5-8 27.3 5.4 52.4 18.8 72.1 38.5 19.8 19.8 33.2 44.9 38.6 72.2 5.4 27.4 2.6 55.7-8.1 81.5-10.6 25.7-28.7 47.8-51.9 63.2-23.2 15.5-50.5 23.7-78.4 23.7-18.5 0.2-36.8-3.3-53.9-10.4zm-107.8-520.8c-51.3 21.5-98 52.9-137.3 92.3l99.5 99.5c26.1-26.2 57.1-47 91.2-61.3 34.2-14.2 70.8-21.6 107.8-21.7 36.9-0.1 73.6 7.1 107.8 21.1 34.2 14.1 65.3 34.8 91.5 60.9l99.5-99.5c-59.1-59-134.3-99.1-216.1-115.4-81.9-16.2-166.8-7.8-243.9 24.1z"/>
</svg>