<?xml version="1.0" encoding="UTF-8"?><svg id="Layer_2" xmlns="http://www.w3.org/2000/svg" viewBox="0 0 673.06 673.66"><defs><style>.cls-1{fill:#fefefe;}.cls-1,.cls-2,.cls-3,.cls-4,.cls-5,.cls-6,.cls-7,.cls-8,.cls-9,.cls-10,.cls-11,.cls-12,.cls-13{stroke-width:0px;}.cls-2{fill:#0381b9;}.cls-3{fill:#fe7900;}.cls-4{fill:#0783bb;}.cls-5{fill:#047fb8;}.cls-6{fill:#0683bb;}.cls-7{fill:#027fb8;}.cls-8{fill:#0783ba;}.cls-9{fill:#fe7201;}.cls-10{fill:#fe7500;}.cls-11{fill:#fe7100;}.cls-12{fill:#fe7200;}.cls-13{fill:#007cb6;}</style></defs><g id="Layer_1-2"><path class="cls-3" d="M672.99,336.43c0,62.38.21,124.76-.05,187.13-.27,65.11-39.76,119.24-97.46,140.38-17.28,6.33-35.46,9.32-53.75,9.37-123.26.28-246.52.67-369.78-.06-66.74-.4-117.81-36.52-141.63-94.76-7.32-17.89-10.05-36.72-10.09-55.76-.24-124.38-.37-248.76.01-373.14C.45,80.28,43.7,26.66,104.07,6.81,120.67,1.35,137.78.25,154.85.21,275.87-.07,396.89.18,517.91,0c49.14-.07,90.32,17,121.9,55.19,22.79,27.56,32.96,59.81,33.1,95.23.25,62,.07,124.01.07,186.01Z"/><path class="cls-1" d="M336.26,617.25c-60.48,0-120.97-.16-181.45.07-31.81.12-58.32-10.84-78.43-35.82-13.28-16.49-20.51-35.52-20.54-56.69-.17-125.49-.4-250.98.09-376.47.17-43.06,30.4-80.05,73.29-90.04,9.22-2.15,18.35-2.82,27.7-2.82,121.01.04,242.02.01,363.03.04,47.52.01,84.5,29.42,95.31,75.5,1.47,6.27,1.65,12.57,1.65,18.91.02,124.37-.35,248.74.16,373.11.22,53.38-45.69,94.72-93.83,93.87-62.31-1.11-124.66-.27-186.99-.27,0,.21,0,.42,0,.63Z"/><path class="cls-10" d="M4.92,537.51V131.37c.37,0,.75,0,1.12,0v405.72c-.37.14-.75.28-1.12.42Z"/><path class="cls-12" d="M538.09,5.57H134.2v-1.12h403.52c.12.37.25.75.37,1.12Z"/><path class="cls-9" d="M136.35,51.49h401.46c0,.29,0,.58,0,.87H136.35c0-.29,0-.58,0-.87Z"/><path class="cls-11" d="M51.98,535.27V135.86c.37,0,.74,0,1.12,0v398.98c-.37.14-.74.29-1.12.43Z"/><path class="cls-8" d="M147.74,310.92c-1.16-38.08-1.38-76.19,0-114.23.99-27.17,22.92-47.51,50.37-49.54,4.46-.33,8.96-.25,13.44-.25,83.3-.02,166.6-.03,249.9,0,7.08,0,14.21-.42,21.19,1.29,28.35,6.92,43.23,26.02,43.9,55.89,1.06,46.67.97,93.39.03,140.07-.51,25.41-13.17,44.63-36.63,55.73-12.11,5.73-24.49,10.9-36.65,16.55-10.59,4.91-10.99,6.64-4.76,16.75,16.83,27.31,33.67,54.61,50.5,81.92,5.05,8.19,3.56,11.31-6.32,11.41-23.9.25-47.81.14-71.72-.04-5.32-.04-10.35-1.5-13.2-6.78-7.85-13.03-15.12-26.43-24.86-38.23l.11.1c-9.26-17.74-20.84-34.04-31.4-50.97-7.78-12.48-12.7-25.67-12.09-40.6.68-16.63-1.32-33.31,1.11-49.9h.02c25.31-.06,50.63.07,75.94-.04,17.34-.08,20.39-3.11,20.42-19.98.04-24.58.14-49.16-.05-73.73-.1-13.19-1.45-14.51-14.18-16.49-7.39-1.59-14.89-.95-22.33-.89-48.51.35-97.03-.93-145.53.64-6.05.57-12.05,1.54-18.06,2.33-5.63-1-6.67,2.12-5.33,6.51,3.8,12.44,2.3,25.18,2.32,37.8.14,64.16.08,128.33.04,192.49,0,5.56.64,11.21-1.27,16.65-2.28,4.02-5.15,8.25-10.24,7-5.85-1.44-5.82-7.23-5.95-12.02-.44-16.8-.17-33.62-.18-50.43-.02-60.89-.02-121.78,0-182.67,0-5.23-.18-10.47.61-15.66,2.79-18.26,17.69-26.31,33.75-17.17,7.96,4.53,15.82,5.82,24.54,5.8,42.58-.12,85.17-.07,127.75-.04,7.53,0,14.68-.68,21.64-4.37,16.77-8.89,30.15-2.6,34.82,15.79.83,3.28,1.07,6.64,1.09,10,.1,29.14.41,58.28-.1,87.41-.39,22.19-13.67,33.11-35.48,30.88-17.86-1.82-35.83-.7-53.75-.62-7.19.03-10.88,3.63-11.33,10.96-1.12,18.37,1.88,34.74,13.59,50.45,9.6,12.88,20.56,25.68,25.05,41.99,1.63,5.92,6.1,10.2,10.43,14.35,4.07,3.91,8.45,7.8,9.77,13.41,2.98,12.66,12.11,16.19,23.43,16.45,5.88.13,14.02,2.86,17.09-1.74,3.75-5.63-2.78-11.75-6.09-16.76-8.82-13.35-16.62-27.33-25.43-40.67-12.78-19.34-4.99-42.86,16.14-52.31,13.19-5.9,26.27-12.76,38.13-20.92,16.52-11.38,25.25-28.53,25.6-48.71.57-33.24.25-66.49.11-99.74-.06-12.97-4.18-25.05-9.79-36.47-6.87-13.98-18.58-20.97-34.27-20.99-85.17-.11-170.34,0-255.51-.03-18.63,0-38.64,20.31-38.82,39.34-.32,34.36-.08,68.73-.1,103.1,0,4.11.2,8.23-.19,12.32-.35,3.62.21,8.52-3.96,9.66-4.98,1.35-8.02-2.96-10.58-6.63-2.95-4.22-2.55-9.07-2.46-14.01.66-35.09.8-70.19.02-105.1.05.14.3-.5-.05-.83-.74-.7-.22-.33-.21.69.58,34.41,1.92,68.82-.62,103.22-.94,1.18-2.06,1.39-3.36.63Z"/><path class="cls-4" d="M423.61,227.98c12.03,1.1,14.78,3.83,15.31,16.27,1.16,27.16.6,54.41.23,81.62-.14,10.04-4.95,15.62-16.16,15.97-26.05.81-52.14.16-78.21-.03-1.36,0-2.72-1.13-4.08-1.73,2.91-3.57,6.94-1.99,10.46-2.01,22.79-.14,45.57-.02,68.36-.09,13.66-.04,15.67-2.06,15.68-15.5.03-25.4.04-50.8-.04-76.21-.04-13.01-.84-13.76-14.19-13.76-56.03-.02-112.07-.01-168.1.01-14.57,0-15.61,1.09-15.62,16.26-.02,85.92-.02,171.84-.03,257.76,0,3.36,0,6.72-.06,10.09-.1,6.39-3.62,9.82-9.76,9.86-23.91.15-47.81.11-71.72-.03-5.89-.04-8.61-3.42-8.54-9.39.14-10.46.02-20.92.02-31.38,0-54.54-.03-109.08,0-163.62,0-3.72.37-7.43.56-11.15.8,0,1.6,0,2.39,0,3.79,8.42,3.08,17.42,3.1,26.25.12,54.88.04,109.76.07,164.64,0,15.6,1.04,16.62,16.42,16.66,15.31.04,30.61.05,45.92-.02,4.05-.02,8.28.73,11.8-2.14.77-1.08,1.47-2.17,1.98-3.4,4.01-43.55,2.47-87.17,2.48-130.74,0-46.63.77-93.26-.47-139.88-.14-5.11.81-9.7,6.11-12.06,5.4.42,10.2-3.3,15.69-2.24,2.35-1.6,5.03-1.06,7.59-1.06,51.72-.03,103.45-.03,155.17,0,2.56,0,5.24-.54,7.59,1.06Z"/><path class="cls-4" d="M340.68,340.09c0,11.5.8,23.07-.17,34.48-2.13,24.96,5.52,46.67,19.64,66.73,7.11,10.1,13.76,20.51,20.6,30.79,1.9,2.86,2.95,5.97,2.31,9.47-14.69-19.16-26.9-39.95-38.99-60.75-4.41-7.59-5.74-16.75-5.64-25.89.17-15.62-.13-31.24-.08-46.85,0-2.79-1.04-6.09,2.33-7.97Z"/><path class="cls-4" d="M382.95,481.46c5.68-.49,5.98,4.84,8,7.89,6.39,9.66,13.67,18.89,16.86,30.35-10.28-11.45-17.76-24.72-24.86-38.23Z"/><path class="cls-6" d="M233.07,517.14c0,.75,0,1.5,0,2.24-25.29,2.43-50.63.4-75.94,1.1-4.33.12-6.12-1.78-5.85-6.02.12-1.86,0-3.73,0-5.6,0-97.82,0-195.63.04-293.45,0-3.29-.85-6.74,1.05-9.86,3.96,3.21,2.13,7.66,2.15,11.52.15,32.11.08,64.23.11,96.34,0,2.97-.45,6.2.54,8.86,1.57,4.21,5.21,9.23,8.93,8.88,3.85-.36,1.6-6.23,1.61-9.56.16-38.84.15-77.67.08-116.51-.02-11.77,4.88-20.59,15.24-26.18,3.75-2.02,6.46-4.97,8.99-8.22,3.09-3.97,7.55-6.32,12.17-6.15,45.89,1.64,91.79.33,137.69.62,41.82.26,83.66.66,125.46-.26,15.76-.35,34.07,14.4,39.52,31.15,5.42,16.67,6.46,33.27,6.24,50.42-.34,27.63.43,55.28-.33,82.89-.34,12.47-5.07,23.96-12.97,34.23-8.42,10.94-18.5,18.46-31.71,22.86-6.43,2.14-11.38,8.38-17.65,11.38-6.81,3.26-15.43,2.67-19.88,10.66-4.73,8.48-1.98,17.55-2.66,26.34-.14,1.79-.13,4.27.92,5.36,8.48,8.81,10.96,21.32,18.75,30.39,9.11,10.6,13.71,23.78,21.3,35.22,1.75,2.64.51,4.46-2.33,4.44-10.42-.1-20.98,1.59-31.22-.81-8.81-2.07-17.27-4.89-17.01-17.11.1-4.68-4.38-8.36-8.02-11.72-6.7-6.18-14.63-11.63-14.39-22.39.03-1.34-1.05-2.77-1.78-4.06-5.95-10.58-13.37-20.36-19.96-30.41-4.99-7.61-10.29-14.97-13.59-23.45-4.76-12.21-2.01-25.08-1.7-37.62.11-4.6,4.82-7.22,10.03-6.94,21.53,1.16,43.16-2.13,64.66,2.01,12.86,2.48,25.53-10.62,25.6-26.02.16-30.99-.02-61.99.12-92.98.02-4.67-1.17-8.74-3.28-12.79-6.89-13.23-16.04-15.66-28.1-7.01-4.77,3.42-9.93,4.56-15.62,4.56-48.55-.04-97.09-.03-145.64-.01-4.11,0-8.47.56-11.29-3.31-5.72-7.86-13.96-5.71-21.56-5.4-4.32.17-7.56,2.91-9.13,7.17-2.07,5.62-3.17,11.3-3.16,17.41.14,79.91.09,159.83.09,239.74,0,.37-.03.75,0,1.12.39,3.58-1.63,8.37,2.2,10.35,4.1,2.12,5.39-4.18,9-4.83,3.09,10.29-.96,21.1,2.24,31.38Z"/><path class="cls-6" d="M466.2,151.77c-.21,1.93-.74,3.9-2.88,4.21-2.56.37-5.2.26-7.8.26-78.91.01-157.83.02-236.74-.03-4.62,0-10,1.56-12.6-4.44,2.73-1.78,5.8-1.06,8.72-1.06,80.86-.04,161.72-.04,242.59,0,2.92,0,5.99-.72,8.72,1.06Z"/><path class="cls-5" d="M152.38,205.56c0,100.29,0,200.58,0,300.87q0,12.91,12.46,12.94c22.74.02,45.49,0,68.23,0-2.44,3.47-6.1,2.17-9.28,2.19-20.92.1-41.84.08-62.76.04-10.81-.02-10.87-.08-10.88-11.2-.02-66.5-.01-133-.01-199.5v-115.67c3.56,3.71,1.66,7.21,2.25,10.32Z"/><path class="cls-2" d="M233.07,517.14c-4.73-5.92-1.38-12.79-2.15-19.18-.48-4.01-.09-8.13-.09-12.2,0-76.73-.04-153.45.08-230.18,0-6.06-.15-12.18-3.15-17.28-2.47-4.2-3.18-7.59.48-10.68,3.9-3.29,6.68-.06,9.31,2.59-3.61,7.14-4.59,14.67-4.58,22.66.15,88.09.09,176.17.09,264.26Z"/><path class="cls-13" d="M466.2,151.77c-86.67,0-173.35,0-260.02,0-3.11-.61-6.64,1.35-9.91-1.9h279.85c-3.27,3.25-6.81,1.29-9.91,1.9Z"/><path class="cls-6" d="M423.61,227.98c-56.79,0-113.57,0-170.36,0,2.42-3.46,6.08-2.19,9.24-2.19,50.62-.07,101.25-.07,151.87,0,3.17,0,6.82-1.27,9.24,2.19Z"/><path class="cls-7" d="M521.75,194.14v159.56c-.37,0-.74,0-1.11,0v-159.09c.37-.16.74-.32,1.11-.48Z"/><path class="cls-6" d="M444.39,324.7v-80.89c.29,0,.58,0,.87-.01v80.89c-.29,0-.58,0-.87.01Z"/><path class="cls-6" d="M423.34,346.78c-21.18,0-42.36.22-63.53-.17-4.61-.09-9.1,2.77-13.7.4,4.02-5.22,9.62-2.2,14.35-2.29,21.13-.4,42.27-.17,63.41-.17-.18.75-.35,1.49-.53,2.24Z"/></g></svg>