<?xml version="1.0" encoding="UTF-8"?>
<!DOCTYPE svg PUBLIC "-//W3C//DTD SVG 1.1//EN" "http://www.w3.org/Graphics/SVG/1.1/DTD/svg11.dtd">
<svg xmlns="http://www.w3.org/2000/svg" version="1.1" width="800px" height="800px" style="shape-rendering:geometricPrecision; text-rendering:geometricPrecision; image-rendering:optimizeQuality; fill-rule:evenodd; clip-rule:evenodd" xmlns:xlink="http://www.w3.org/1999/xlink">
<g><path style="opacity:1" fill="#ff7b04" d="M 95.5,-0.5 C 198.167,-0.5 300.833,-0.5 403.5,-0.5C 418.642,2.16075 432.976,7.32742 446.5,15C 460.407,23.7417 471.74,34.9084 480.5,48.5C 480.427,50.0269 481.094,51.0269 482.5,51.5C 483.885,52.5736 485.051,53.9069 486,55.5C 492.434,68.3048 496.934,81.6381 499.5,95.5C 499.5,198.167 499.5,300.833 499.5,403.5C 490.908,448.858 464.908,479.358 421.5,495C 415.371,496.532 409.371,498.032 403.5,499.5C 300.833,499.5 198.167,499.5 95.5,499.5C 82.3851,497.073 69.7185,492.907 57.5,487C 55.2528,485.723 53.2528,484.223 51.5,482.5C 51.0269,481.094 50.0269,480.427 48.5,480.5C 28.714,467.526 14.5474,449.859 6,427.5C 3.4921,419.458 1.32544,411.458 -0.5,403.5C -0.5,300.833 -0.5,198.167 -0.5,95.5C 1.92666,82.3851 6.09333,69.7185 12,57.5C 13.2775,55.2528 14.7775,53.2528 16.5,51.5C 17.9063,51.0269 18.573,50.0269 18.5,48.5C 22.4244,42.7295 26.5911,37.0628 31,31.5C 31.6708,30.7476 32.5041,30.4142 33.5,30.5C 36.0892,29.5806 38.0892,27.914 39.5,25.5C 50.121,15.0147 62.7876,7.84799 77.5,4C 83.6287,2.46782 89.6287,0.967815 95.5,-0.5 Z M 426.5,54.5 C 426.973,55.9063 427.973,56.573 429.5,56.5C 429.833,57.5 430.5,58.1667 431.5,58.5C 431.973,59.9063 432.973,60.573 434.5,60.5C 447.624,74.0937 454.791,90.427 456,109.5C 456.667,202.833 456.667,296.167 456,389.5C 455.27,402.852 451.437,415.186 444.5,426.5C 443.094,426.973 442.427,427.973 442.5,429.5C 441.5,429.833 440.833,430.5 440.5,431.5C 439.094,431.973 438.427,432.973 438.5,434.5C 436.833,435.5 435.5,436.833 434.5,438.5C 432.251,439.08 430.585,440.413 429.5,442.5C 427.596,442.738 426.262,443.738 425.5,445.5C 414.318,451.726 402.318,455.226 389.5,456C 296.167,456.667 202.833,456.667 109.5,456C 99.7148,455.649 90.3814,453.482 81.5,449.5C 80.7095,448.599 79.7095,447.932 78.5,447.5C 71.9626,443.97 65.9626,439.637 60.5,434.5C 60.573,432.973 59.9063,431.973 58.5,431.5C 58.1667,430.5 57.5,429.833 56.5,429.5C 56.573,427.973 55.9063,426.973 54.5,426.5C 47.563,415.186 43.7296,402.852 43,389.5C 42.3333,296.167 42.3333,202.833 43,109.5C 47.1667,69.3333 69.3333,47.1667 109.5,43C 202.833,42.3333 296.167,42.3333 389.5,43C 402.852,43.7296 415.186,47.563 426.5,54.5 Z"/></g>
<g><path style="opacity:0.89" fill="#ffad68" d="M 39.5,25.5 C 38.0892,27.914 36.0892,29.5806 33.5,30.5C 34.9108,28.086 36.9108,26.4194 39.5,25.5 Z"/></g>
<g><path style="opacity:0.502" fill="#ffc491" d="M 18.5,48.5 C 18.573,50.0269 17.9063,51.0269 16.5,51.5C 16.427,49.9731 17.0937,48.9731 18.5,48.5 Z"/></g>
<g><path style="opacity:0.518" fill="#ffc28c" d="M 480.5,48.5 C 481.906,48.9731 482.573,49.9731 482.5,51.5C 481.094,51.0269 480.427,50.0269 480.5,48.5 Z"/></g>
<g><path style="opacity:0.502" fill="#ffc998" d="M 426.5,54.5 C 428.027,54.427 429.027,55.0937 429.5,56.5C 427.973,56.573 426.973,55.9063 426.5,54.5 Z"/></g>
<g><path style="opacity:0.757" fill="#ffc591" d="M 431.5,58.5 C 433.027,58.427 434.027,59.0937 434.5,60.5C 432.973,60.573 431.973,59.9063 431.5,58.5 Z"/></g>
<g><path style="opacity:1" fill="#1485bd" d="M 147.5,107.5 C 215.501,107.333 283.501,107.5 351.5,108C 375.333,110.5 388.5,123.667 391,147.5C 391.667,184.833 391.667,222.167 391,259.5C 388.814,278.355 378.981,291.522 361.5,299C 351.267,302.783 341.267,307.116 331.5,312C 330.941,312.725 330.608,313.558 330.5,314.5C 344.387,337.929 358.554,361.263 373,384.5C 373.756,386.809 373.256,388.809 371.5,390.5C 350.21,391.655 328.877,391.822 307.5,391C 303.052,388.886 299.552,385.719 297,381.5C 285.166,361.828 272.833,342.495 260,323.5C 256.197,317.561 253.197,311.227 251,304.5C 249.896,288.167 249.062,271.834 248.5,255.5C 249.113,251.72 251.28,249.387 255,248.5C 275.469,249.649 295.969,249.816 316.5,249C 318.329,248.727 319.829,247.893 321,246.5C 321.667,222.833 321.667,199.167 321,175.5C 320.5,175 320,174.5 319.5,174C 272.833,173.333 226.167,173.333 179.5,174C 179,174.5 178.5,175 178,175.5C 177.667,245.833 177.333,316.167 177,386.5C 176.167,388.667 174.667,390.167 172.5,391C 152.5,391.667 132.5,391.667 112.5,391C 111.069,390.535 109.903,389.701 109,388.5C 107.339,308.248 107.006,227.915 108,147.5C 110.678,123.656 123.844,110.323 147.5,107.5 Z"/></g>
<g><path style="opacity:0.506" fill="#ffc999" d="M 54.5,426.5 C 55.9063,426.973 56.573,427.973 56.5,429.5C 55.0937,429.027 54.427,428.027 54.5,426.5 Z"/></g>
<g><path style="opacity:0.502" fill="#ffc998" d="M 444.5,426.5 C 444.573,428.027 443.906,429.027 442.5,429.5C 442.427,427.973 443.094,426.973 444.5,426.5 Z"/></g>
<g><path style="opacity:0.745" fill="#ffc692" d="M 58.5,431.5 C 59.9063,431.973 60.573,432.973 60.5,434.5C 59.0937,434.027 58.427,433.027 58.5,431.5 Z"/></g>
<g><path style="opacity:0.753" fill="#ffc591" d="M 440.5,431.5 C 440.573,433.027 439.906,434.027 438.5,434.5C 438.427,432.973 439.094,431.973 440.5,431.5 Z"/></g>
<g><path style="opacity:0.945" fill="#ffaf6a" d="M 434.5,438.5 C 433.415,440.587 431.749,441.92 429.5,442.5C 430.585,440.413 432.251,439.08 434.5,438.5 Z"/></g>
<g><path style="opacity:0.784" fill="#ffbd83" d="M 429.5,442.5 C 428.738,444.262 427.404,445.262 425.5,445.5C 426.262,443.738 427.596,442.738 429.5,442.5 Z"/></g>
<g><path style="opacity:0.941" fill="#ffc18b" d="M 78.5,447.5 C 79.7095,447.932 80.7095,448.599 81.5,449.5C 79.8212,449.715 78.8212,449.048 78.5,447.5 Z"/></g>
<g><path style="opacity:0.502" fill="#ffc491" d="M 48.5,480.5 C 50.0269,480.427 51.0269,481.094 51.5,482.5C 49.9731,482.573 48.9731,481.906 48.5,480.5 Z"/></g>
</svg>
